<svg width="800" height="174" viewBox="0 0 800 174" fill="none" xmlns="http://www.w3.org/2000/svg">
<path d="M66.6453 91.6449H79.9447V173.447L70.9962 173.339L12.816 100.145V173.339L0 173.447V91.6449H8.83013L66.6453 164.947V91.6449ZM178.181 119.85V145.884C178.181 168.975 164.27 173.329 152.302 173.654L152.184 173.763H136.458V173.654C124.48 173.437 110.086 169.192 110.086 145.884V119.85C110.086 96.7588 124.115 92.4051 136.093 92.0793H152.786C164.763 92.5137 178.181 97.0945 178.181 119.85ZM166.085 116.148C165.997 113.976 165.849 111.409 165.513 109.05C165.217 106.977 164.586 104.953 163.57 103.117C163.57 103.107 163.55 103.087 163.55 103.077C163.303 102.751 163.185 102.426 163.185 102.317C160.876 98.4568 156.979 94.962 150.31 93.4516C149.057 93.1653 147.764 93.0567 146.482 93.0567H141.904C140.552 93.0567 139.2 93.185 137.888 93.5009C131.278 95.0805 127.499 98.4766 125.2 102.317C125.2 102.426 125.082 102.751 124.835 103.077C124.835 103.087 124.826 103.097 124.816 103.107C123.799 104.943 123.168 106.977 122.872 109.05C122.527 111.409 122.379 113.966 122.3 116.138V149.576C122.389 151.748 122.537 154.315 122.872 156.664C123.168 158.747 123.799 160.771 124.816 162.607C124.816 162.617 124.825 162.627 124.835 162.637C125.082 162.963 125.2 163.289 125.2 163.397C127.509 167.247 131.406 170.752 138.076 172.253C139.329 172.539 140.621 172.647 141.904 172.647H146.432C147.833 172.647 149.244 172.509 150.606 172.174C157.058 170.574 160.896 167.208 163.175 163.387C163.175 163.279 163.293 162.953 163.54 162.627C163.54 162.617 163.56 162.597 163.56 162.588C164.576 160.751 165.197 158.727 165.503 156.654C165.849 154.295 165.997 151.708 166.076 149.457V116.128L166.085 116.148ZM236.144 132.161C236.026 132.052 235.908 132.052 235.661 132.052C235.296 132.052 234.931 131.944 234.576 131.944C226.476 131.075 222.963 129.436 221.513 128.459C220.546 127.59 219.816 126.711 219.214 125.843C219.214 125.734 219.214 125.626 219.096 125.517C218.612 124.648 218.129 123.661 217.764 122.684C217.517 121.489 217.28 120.067 217.162 118.656C217.044 116.691 217.044 114.411 216.915 112.446V109.395C217.034 107.105 217.28 104.39 217.764 102.208C218.129 101.231 218.612 100.352 219.096 99.375C219.214 99.2664 219.214 99.1578 219.214 99.1578C220.911 96.5416 223.565 94.1525 228.044 92.8395H247.392C247.993 92.9481 248.477 93.1653 248.724 93.3825C249.325 93.9254 249.937 95.3471 251.259 93.8168C252.709 92.2965 250.174 91.3093 249.927 91.3093H227.551C220.053 91.5265 209.772 93.8169 205.658 103.077H205.54V103.186C204.938 104.825 204.326 106.453 204.089 108.418L203.853 109.504V112.555C203.853 115.388 204.218 117.787 204.938 119.959C204.938 120.285 205.056 120.61 205.175 120.828L205.293 120.936C208.44 129.219 216.304 132.151 223.318 133.138C223.437 133.138 223.565 133.247 223.802 133.247C224.167 133.247 224.532 133.356 224.887 133.356C232.987 134.224 236.5 135.863 237.95 136.841C238.917 137.709 239.647 138.588 240.249 139.457C240.249 139.565 240.249 139.674 240.367 139.782C240.85 140.651 241.334 141.638 241.699 142.616C242.301 144.689 242.419 147.404 242.547 149.694V152.853C242.547 154.818 242.429 156.99 242.301 159.063C242.182 160.475 241.936 161.897 241.699 163.091C241.334 163.96 240.85 164.947 240.367 165.924C240.288 165.997 240.249 166.069 240.249 166.142C239.4 167.336 238.433 168.541 237.101 169.627C233.589 172.026 229.001 172.46 225.242 172.46H208.796C208.283 172.46 207.71 172.134 207.464 171.917C206.862 171.374 206.25 169.844 204.928 171.483C203.478 173.003 206.013 173.99 206.26 173.99H231.419C239.282 173.783 250.519 171.483 254.268 161.136C255.117 158.737 255.6 156.131 255.6 152.972V152.755C255.6 149.053 254.998 146.002 253.903 143.494C250.519 135.873 242.893 133.04 236.125 132.171L236.144 132.161ZM654.604 143.494C655.689 146.002 656.301 149.053 656.301 152.755V152.972C656.301 156.131 655.817 158.747 654.969 161.136C651.22 171.483 639.982 173.773 632.119 174H621.533H590.859L544.834 113.927C537.296 104.133 524.974 99.2466 512.779 101.28C512.72 101.3 512.651 101.31 512.592 101.32C504.896 102.603 497.95 102.514 491.754 102.514C478.376 102.514 467.957 97.1636 461.762 91.1809C441.053 71.1894 426.046 74.4374 411.681 78.2975L399.132 92.0892H420.107C428.454 92.0892 437.254 95.6827 440.905 104.509C443.983 111.942 442.473 120.324 441.398 123.236C438.251 132.171 427.487 135.33 420.344 136.307L443.45 173.339H431.719L409.343 136.742H397.001V173.339H384.668V107.994L324.84 173.763V173.783H324.821H319.345H312.379V93.5108H275.007V91.9905H362.578V93.5108H324.84V167.741L384.668 101.971L393.656 92.0892L463.32 15.4897L468.757 20.2679L487.887 0L620.349 172.46H625.933C629.682 172.46 634.28 172.026 637.782 169.627C639.114 168.541 640.081 167.336 640.929 166.142C640.929 166.069 640.969 165.997 641.048 165.924C641.531 164.947 642.015 163.96 642.38 163.091C642.616 161.897 642.863 160.475 642.982 159.063C643.1 156.99 643.228 154.818 643.228 152.853V149.694C643.11 147.404 642.982 144.679 642.38 142.616C642.015 141.638 641.531 140.651 641.048 139.782C640.929 139.674 640.929 139.565 640.929 139.457C640.328 138.588 639.597 137.709 638.631 136.841C637.18 135.863 633.668 134.224 625.568 133.356C625.203 133.356 624.838 133.247 624.483 133.247C624.236 133.247 624.118 133.138 623.999 133.138C616.984 132.161 609.121 129.219 605.974 120.936L605.856 120.828C605.737 120.61 605.619 120.285 605.619 119.959C604.889 117.777 604.533 115.388 604.533 112.555V109.504L604.77 108.418C605.007 106.453 605.619 104.825 606.221 103.186V103.077H606.339C610.453 93.8169 620.734 91.5363 628.232 91.3093H650.608C650.845 91.3093 653.39 92.2866 651.94 93.8168C650.608 95.3372 650.006 93.9254 649.404 93.3825C649.158 93.1653 648.674 92.9481 648.072 92.8395H628.725C624.246 94.1426 621.592 96.5416 619.895 99.1578C619.895 99.1578 619.895 99.2664 619.777 99.375C619.293 100.352 618.81 101.231 618.445 102.208C617.961 104.39 617.715 107.105 617.596 109.395V112.446C617.715 114.411 617.715 116.691 617.843 118.656C617.961 120.067 618.208 121.489 618.445 122.684C618.81 123.661 619.293 124.648 619.777 125.517C619.895 125.626 619.895 125.734 619.895 125.843C620.497 126.711 621.227 127.59 622.194 128.459C623.644 129.436 627.156 131.075 635.256 131.944C635.621 131.944 635.986 132.052 636.342 132.052C636.578 132.052 636.707 132.052 636.825 132.161C643.603 133.03 651.22 135.863 654.604 143.485V143.494ZM397.662 93.6885L396.991 94.4289V135.212H413.447C417.197 135.212 421.439 134.906 425.415 132.161C427.605 130.651 430.318 126.741 430.565 121.282C430.92 113.433 430.644 103.521 428.444 100.352C425.356 95.9098 422.139 93.3529 414.434 92.9481C410.438 92.7408 401.944 92.9283 397.662 93.6885ZM523.306 85.9387L473.246 20.8504L468.757 25.5101L463.478 21.3341L414.168 75.5431C427.724 72.1174 443.154 70.4095 463.163 89.7198C476.965 103.038 501.147 97.2524 523.306 85.9387ZM688.01 173.882H699.859V91.6449H688.01V173.882ZM800 173.447H786.937L784.52 168.215C782.468 163.535 775.453 148.174 770.244 144.798C769.159 143.929 767.945 143.169 766.495 142.507C764.078 141.53 760.694 141.421 759.598 141.421H740.251L725.975 173.447H723.193L755.001 102.1H755.119L759.717 91.8621H763.348L768.064 102.1L799.99 173.447H800ZM772.543 141.095L756.461 105.15L740.863 140.118H762.992C765.893 140.118 769.159 140.335 772.553 141.095H772.543ZM729.418 73.9636H712.133V64.19C712.133 63.2422 712.31 62.2846 712.774 61.4652C713.258 60.5964 714.047 59.7869 715.29 59.2637C716.138 58.9083 717.056 58.7997 717.964 58.8194C719.74 58.8589 722.956 58.9576 722.956 58.9576C726.044 58.7898 729.625 57.5656 731.125 53.3403C731.332 52.7578 731.707 51.119 731.806 50.1219C732.082 47.3379 731.766 43.1619 731.5 42.066C730.523 38.1763 726.202 36.7152 722.768 36.6659C720.322 36.6363 718.585 36.6363 716.336 36.7054C712.192 36.8238 707.535 38.8477 707.535 44.9883L712.932 44.8698C712.932 44.8698 711.965 38.3935 717.747 37.5248C718.319 37.4458 720.845 36.9818 723.439 38.2158C725.709 39.2919 726.616 41.6613 726.666 46.1729C726.685 48.1375 726.735 49.0951 726.715 50.0034C726.646 52.353 726.005 56.6475 722.532 57.8026C722.226 57.8914 721.456 58 719.503 58C717.549 58 716.484 57.9309 715.468 57.8914C712.014 57.7631 707.002 59.5203 706.647 65.8288L706.766 75.3358H729.428V73.9636H729.418ZM629.07 57.7927C628.765 57.8815 627.995 57.9901 626.042 57.9901C624.088 57.9901 623.023 57.921 622.006 57.8815C618.553 57.7532 613.541 59.5105 613.186 65.8189L613.304 75.326H635.967V73.9537H618.681V64.1801C618.681 63.2323 618.859 62.2747 619.323 61.4553C619.806 60.5866 620.595 59.777 621.839 59.2538C622.687 58.8984 623.605 58.7898 624.512 58.8095C626.288 58.849 629.504 58.9477 629.504 58.9477C632.593 58.7799 636.174 57.5557 637.683 53.3304C637.891 52.7479 638.266 51.1091 638.364 50.112C638.641 47.328 638.325 43.152 638.058 42.0562C637.082 38.1665 632.76 36.7054 629.327 36.656C626.88 36.6264 625.144 36.6264 622.894 36.6955C618.75 36.814 614.094 38.8378 614.094 44.9784L619.49 44.8599C619.49 44.8599 618.524 38.3837 624.305 37.5149C624.877 37.4359 627.403 36.9719 629.998 38.206C632.267 39.282 633.175 41.6514 633.224 46.1631C633.244 48.1277 633.293 49.0853 633.273 49.9935C633.204 52.3431 632.563 56.6376 629.09 57.7927H629.07ZM683.314 44.1096V67.3985C683.314 68.1488 683.265 68.8991 683.077 69.6197C681.933 74.1511 677.819 75.326 674.415 75.4839H668.387C665.318 75.3852 660.148 74.319 659.547 68.2672H659.527L659.557 44.4848C659.557 43.695 659.616 42.9052 659.823 42.1352C661.115 37.3372 665.822 36.5672 668.702 36.5672H674.198C677.385 36.6659 682.791 37.8308 683.334 44.0997L683.314 44.1096ZM678.105 43.774C678.105 42.9644 678.184 40.0817 675.697 38.4626C674.918 37.9493 673.981 37.742 673.043 37.742H669.748C668.683 37.742 667.617 38.0283 666.779 38.6798C664.756 40.2298 664.746 42.8262 664.736 43.6555V67.6354C664.736 67.6354 664.736 67.7243 664.716 67.8723C664.568 71.4363 667.479 74.3881 671.05 74.3782H671.82C675.224 74.3782 678.046 71.6633 678.125 68.2475C678.125 67.8427 678.105 43.774 678.105 43.774ZM750.571 67.359L750.591 67.6453C750.956 74.24 756.471 75.3852 759.737 75.4839H765.765C769.247 75.4839 773.835 73.7661 774.447 68.366C774.516 68.129 775.493 58.7404 773.036 55.522C771.596 53.6266 769.267 52.5998 766.11 52.4616H755.978V37.8802L774.457 37.5445V36.3796H750.601V53.4686L762.085 53.4489C763.14 53.4489 764.206 53.5969 765.193 53.9721C766.09 54.3077 767.087 54.8606 767.817 55.7689C769.247 57.536 769.277 60.2312 769.297 62.4426C769.317 64.2986 770.205 71.2783 767.235 73.391C765.429 74.6744 761.956 74.4276 760.999 74.4078C759.944 74.3881 758.898 74.1018 758.049 73.47C755.544 71.6041 755.918 67.3491 755.918 67.3491H750.581L750.571 67.359Z" fill="#FFF8F8"/>
</svg>
